<svg xmlns="http://www.w3.org/2000/svg" width="2048" height="80"><path d="M1007,43L1032,23L1016,5Z" fill="#fd9d67" stroke="#fd9d67" stroke-width="1.51"/><path d="M957,-20L972,57L1007,43Z" fill="#fd9d67" stroke="#fd9d67" stroke-width="1.51"/><path d="M1032,23L1062,-18L1016,5Z" fill="#fda973" stroke="#fda973" stroke-width="1.51"/><path d="M1007,43L1025,90L1032,23Z" fill="#f98455" stroke="#f98455" stroke-width="1.51"/><path d="M1032,23L1078,10L1062,-18Z" fill="#fda772" stroke="#fda772" stroke-width="1.51"/><path d="M972,57L1025,90L1007,43Z" fill="#f67d52" stroke="#f67d52" stroke-width="1.51"/><path d="M1089,26L1078,10L1032,23Z" fill="#fc9d68" stroke="#fc9d68" stroke-width="1.51"/><path d="M1062,-18L1052,-30L1016,5Z" fill="#feb17d" stroke="#feb17d" stroke-width="1.51"/><path d="M972,57L967,75L1025,90Z" fill="#f2754d" stroke="#f2754d" stroke-width="1.51"/><path d="M1016,5L957,-20L1007,43Z" fill="#fda973" stroke="#fda973" stroke-width="1.51"/><path d="M1052,-30L1017,-46L1016,5Z" fill="#ffb685" stroke="#ffb685" stroke-width="1.51"/><path d="M980,-46L957,-20L1016,5Z" fill="#ffb885" stroke="#ffb885" stroke-width="1.51"/><path d="M972,57L921,30L967,75Z" fill="#f9895a" stroke="#f9895a" stroke-width="1.51"/><path d="M1025,90L1089,26L1032,23Z" fill="#fa8756" stroke="#fa8756" stroke-width="1.51"/><path d="M967,75L1021,97L1025,90Z" fill="#ec6840" stroke="#ec6840" stroke-width="1.51"/><path d="M1099,84L1089,26L1025,90Z" fill="#f4754e" stroke="#f4754e" stroke-width="1.51"/><path d="M1112,-22L1086,-42L1062,-18Z" fill="#ffb385" stroke="#ffb385" stroke-width="1.51"/><path d="M1017,-46L980,-46L1016,5Z" fill="#ffb98b" stroke="#ffb98b" stroke-width="1.51"/><path d="M1021,97L1024,105L1025,90Z" fill="#e66038" stroke="#e66038" stroke-width="1.51"/><path d="M1011,130L1024,105L1021,97Z" fill="#dd5931" stroke="#dd5931" stroke-width="1.51"/><path d="M957,-20L921,30L972,57Z" fill="#fda46d" stroke="#fda46d" stroke-width="1.51"/><path d="M1052,-30L1086,-42L1017,-46Z" fill="#ffba90" stroke="#ffba90" stroke-width="1.51"/><path d="M1062,-18L1086,-42L1052,-30Z" fill="#ffb688" stroke="#ffb688" stroke-width="1.51"/><path d="M1112,-22L1062,-18L1078,10Z" fill="#fdad78" stroke="#fdad78" stroke-width="1.51"/><path d="M957,-20L913,18L921,30Z" fill="#fdaf78" stroke="#fdaf78" stroke-width="1.51"/><path d="M900,-15L913,18L957,-20Z" fill="#feb780" stroke="#feb780" stroke-width="1.51"/><path d="M1074,125L1099,84L1025,90Z" fill="#e35b35" stroke="#e35b35" stroke-width="1.51"/><path d="M1089,26L1112,-22L1078,10Z" fill="#fca571" stroke="#fca571" stroke-width="1.51"/><path d="M1024,105L1074,125L1025,90Z" fill="#df5a32" stroke="#df5a32" stroke-width="1.51"/><path d="M967,75L1011,130L1021,97Z" fill="#e46038" stroke="#e46038" stroke-width="1.51"/><path d="M944,137L1011,130L967,75Z" fill="#dc5c32" stroke="#dc5c32" stroke-width="1.51"/><path d="M1131,35L1112,-22L1089,26Z" fill="#fc9f6c" stroke="#fc9f6c" stroke-width="1.51"/><path d="M1011,130L1074,125L1024,105Z" fill="#d5532c" stroke="#d5532c" stroke-width="1.51"/><path d="M1099,84L1131,35L1089,26Z" fill="#f88153" stroke="#f88153" stroke-width="1.51"/><path d="M1146,64L1131,35L1099,84Z" fill="#f4764f" stroke="#f4764f" stroke-width="1.51"/><path d="M901,-43L900,-15L957,-20Z" fill="#ffc08f" stroke="#ffc08f" stroke-width="1.51"/><path d="M1074,125L1107,109L1099,84Z" fill="#de5531" stroke="#de5531" stroke-width="1.51"/><path d="M921,30L909,101L967,75Z" fill="#f57f55" stroke="#f57f55" stroke-width="1.51"/><path d="M885,80L909,101L921,30Z" fill="#f58055" stroke="#f58055" stroke-width="1.51"/><path d="M885,80L921,30L873,55Z" fill="#f98d5e" stroke="#f98d5e" stroke-width="1.51"/><path d="M980,-46L901,-43L957,-20Z" fill="#ffc195" stroke="#ffc195" stroke-width="1.51"/><path d="M909,101L944,137L967,75Z" fill="#e2643a" stroke="#e2643a" stroke-width="1.51"/><path d="M1011,130L928,142L1074,125Z" fill="#c8532e" stroke="#c8532e" stroke-width="1.51"/><path d="M909,101L928,142L944,137Z" fill="#cf5b34" stroke="#cf5b34" stroke-width="1.51"/><path d="M873,55L921,30L913,18Z" fill="#fd9d67" stroke="#fd9d67" stroke-width="1.51"/><path d="M873,55L913,18L841,30Z" fill="#fd9f69" stroke="#fd9f69" stroke-width="1.51"/><path d="M1107,109L1146,64L1099,84Z" fill="#eb613d" stroke="#eb613d" stroke-width="1.51"/><path d="M1131,35L1154,-17L1112,-22Z" fill="#fca572" stroke="#fca572" stroke-width="1.51"/><path d="M841,30L913,18L900,-15Z" fill="#fdb27a" stroke="#fdb27a" stroke-width="1.51"/><path d="M944,137L928,142L1011,130Z" fill="#c45631" stroke="#c45631" stroke-width="1.51"/><path d="M867,134L928,142L909,101Z" fill="#d15e36" stroke="#d15e36" stroke-width="1.51"/><path d="M1112,-22L1144,-54L1086,-42Z" fill="#ffb58e" stroke="#ffb58e" stroke-width="1.51"/><path d="M1167,29L1154,-17L1131,35Z" fill="#fb9b69" stroke="#fb9b69" stroke-width="1.51"/><path d="M1146,64L1167,29L1131,35Z" fill="#f98354" stroke="#f98354" stroke-width="1.51"/><path d="M1172,103L1156,67L1146,64Z" fill="#ed6442" stroke="#ed6442" stroke-width="1.51"/><path d="M1086,-42L1149,-62L1017,-46Z" fill="#ffbb96" stroke="#ffbb96" stroke-width="1.51"/><path d="M1017,-46L1149,-62L980,-46Z" fill="#ffbd98" stroke="#ffbd98" stroke-width="1.51"/><path d="M980,-46L851,-51L901,-43Z" fill="#ffc79f" stroke="#ffc79f" stroke-width="1.51"/><path d="M1154,-17L1144,-54L1112,-22Z" fill="#ffb187" stroke="#ffb187" stroke-width="1.51"/><path d="M1156,67L1167,29L1146,64Z" fill="#f57950" stroke="#f57950" stroke-width="1.51"/><path d="M1189,-30L1149,-62L1144,-54Z" fill="#ffb593" stroke="#ffb593" stroke-width="1.51"/><path d="M901,-43L865,-23L900,-15Z" fill="#ffc293" stroke="#ffc293" stroke-width="1.51"/><path d="M1144,-54L1149,-62L1086,-42Z" fill="#ffb997" stroke="#ffb997" stroke-width="1.51"/><path d="M1189,-30L1144,-54L1154,-17Z" fill="#ffb188" stroke="#ffb188" stroke-width="1.51"/><path d="M839,126L867,134L885,80Z" fill="#dd663b" stroke="#dd663b" stroke-width="1.51"/><path d="M885,80L867,134L909,101Z" fill="#e3693e" stroke="#e3693e" stroke-width="1.51"/><path d="M865,-23L841,30L900,-15Z" fill="#feba83" stroke="#feba83" stroke-width="1.51"/><path d="M1156,67L1204,53L1167,29Z" fill="#f67b51" stroke="#f67b51" stroke-width="1.51"/><path d="M1107,109L1172,103L1146,64Z" fill="#e75938" stroke="#e75938" stroke-width="1.51"/><path d="M1192,122L1172,103L1107,109Z" fill="#d94e2c" stroke="#d94e2c" stroke-width="1.51"/><path d="M865,-23L830,-1L841,30Z" fill="#fdb983" stroke="#fdb983" stroke-width="1.51"/><path d="M901,-43L851,-51L865,-23Z" fill="#ffc89d" stroke="#ffc89d" stroke-width="1.51"/><path d="M1149,-62L851,-51L980,-46Z" fill="#ffc29d" stroke="#ffc29d" stroke-width="1.51"/><path d="M839,126L885,80L819,99Z" fill="#e56e42" stroke="#e56e42" stroke-width="1.51"/><path d="M851,-51L830,-1L865,-23Z" fill="#ffc594" stroke="#ffc594" stroke-width="1.51"/><path d="M819,99L885,80L873,55Z" fill="#f27e52" stroke="#f27e52" stroke-width="1.51"/><path d="M1204,-16L1189,-30L1154,-17Z" fill="#fdab7d" stroke="#fdab7d" stroke-width="1.51"/><path d="M1204,-16L1154,-17L1167,29Z" fill="#fba271" stroke="#fba271" stroke-width="1.51"/><path d="M1172,103L1197,76L1156,67Z" fill="#eb603f" stroke="#eb603f" stroke-width="1.51"/><path d="M1197,76L1204,53L1156,67Z" fill="#f26e4b" stroke="#f26e4b" stroke-width="1.51"/><path d="M1204,53L1204,-16L1167,29Z" fill="#f99263" stroke="#f99263" stroke-width="1.51"/><path d="M819,99L873,55L841,30Z" fill="#f88c60" stroke="#f88c60" stroke-width="1.51"/><path d="M1355,142L1192,122L1074,125Z" fill="#c64327" stroke="#c64327" stroke-width="1.51"/><path d="M1074,125L1192,122L1107,109Z" fill="#d44d2a" stroke="#d44d2a" stroke-width="1.51"/><path d="M1172,103L1192,122L1197,76Z" fill="#e05131" stroke="#e05131" stroke-width="1.51"/><path d="M1256,90L1261,39L1204,53Z" fill="#f26e4b" stroke="#f26e4b" stroke-width="1.51"/><path d="M794,91L819,99L841,30Z" fill="#f4865a" stroke="#f4865a" stroke-width="1.51"/><path d="M851,-51L815,-45L830,-1Z" fill="#ffc99c" stroke="#ffc99c" stroke-width="1.51"/><path d="M830,-1L790,26L841,30Z" fill="#fdb27b" stroke="#fdb27b" stroke-width="1.51"/><path d="M1204,-16L1249,-46L1189,-30Z" fill="#fdac84" stroke="#fdac84" stroke-width="1.51"/><path d="M1189,-30L1249,-46L1149,-62Z" fill="#ffb290" stroke="#ffb290" stroke-width="1.51"/><path d="M1204,53L1229,-9L1204,-16Z" fill="#fa9a6a" stroke="#fa9a6a" stroke-width="1.51"/><path d="M1261,39L1229,-9L1204,53Z" fill="#f88a5d" stroke="#f88a5d" stroke-width="1.51"/><path d="M779,-12L790,26L830,-1Z" fill="#fdbc85" stroke="#fdbc85" stroke-width="1.51"/><path d="M790,26L794,91L841,30Z" fill="#fb9966" stroke="#fb9966" stroke-width="1.51"/><path d="M819,99L801,123L839,126Z" fill="#dc693d" stroke="#dc693d" stroke-width="1.51"/><path d="M794,91L801,123L819,99Z" fill="#e47044" stroke="#e47044" stroke-width="1.51"/><path d="M839,126L764,140L867,134Z" fill="#c9633b" stroke="#c9633b" stroke-width="1.51"/><path d="M815,-45L779,-12L830,-1Z" fill="#fec692" stroke="#fec692" stroke-width="1.51"/><path d="M790,26L767,53L794,91Z" fill="#fa9566" stroke="#fa9566" stroke-width="1.51"/><path d="M1229,-9L1249,-46L1204,-16Z" fill="#fda97e" stroke="#fda97e" stroke-width="1.51"/><path d="M1308,15L1249,-46L1229,-9Z" fill="#faa274" stroke="#faa274" stroke-width="1.51"/><path d="M794,91L764,140L801,123Z" fill="#da6b3e" stroke="#da6b3e" stroke-width="1.51"/><path d="M748,-5L767,53L790,26Z" fill="#fdb17a" stroke="#fdb17a" stroke-width="1.51"/><path d="M1256,90L1204,53L1197,76Z" fill="#ee6444" stroke="#ee6444" stroke-width="1.51"/><path d="M1192,122L1256,90L1197,76Z" fill="#e25133" stroke="#e25133" stroke-width="1.51"/><path d="M767,53L764,84L794,91Z" fill="#f4875a" stroke="#f4875a" stroke-width="1.51"/><path d="M779,-12L748,-5L790,26Z" fill="#fdbf88" stroke="#fdbf88" stroke-width="1.51"/><path d="M767,53L723,66L764,84Z" fill="#f78f63" stroke="#f78f63" stroke-width="1.51"/><path d="M751,-27L748,-5L779,-12Z" fill="#fdc893" stroke="#fdc893" stroke-width="1.51"/><path d="M815,-45L751,-27L779,-12Z" fill="#ffcb9c" stroke="#ffcb9c" stroke-width="1.51"/><path d="M1192,122L1268,103L1256,90Z" fill="#dc4a2e" stroke="#dc4a2e" stroke-width="1.51"/><path d="M1256,90L1281,61L1261,39Z" fill="#f16a49" stroke="#f16a49" stroke-width="1.51"/><path d="M1284,103L1281,61L1256,90Z" fill="#e7553a" stroke="#e7553a" stroke-width="1.51"/><path d="M1308,15L1283,-59L1249,-46Z" fill="#fca781" stroke="#fca781" stroke-width="1.51"/><path d="M801,123L764,140L839,126Z" fill="#cd663c" stroke="#cd663c" stroke-width="1.51"/><path d="M867,134L764,140L928,142Z" fill="#c35f38" stroke="#c35f38" stroke-width="1.51"/><path d="M764,84L764,140L794,91Z" fill="#e47346" stroke="#e47346" stroke-width="1.51"/><path d="M717,129L764,140L764,84Z" fill="#db6e41" stroke="#db6e41" stroke-width="1.51"/><path d="M1268,103L1284,103L1256,90Z" fill="#df4b30" stroke="#df4b30" stroke-width="1.51"/><path d="M1355,142L1284,103L1268,103Z" fill="#d23f26" stroke="#d23f26" stroke-width="1.51"/><path d="M1249,-46L1283,-59L1149,-62Z" fill="#ffb395" stroke="#ffb395" stroke-width="1.51"/><path d="M1308,15L1229,-9L1261,39Z" fill="#f99366" stroke="#f99366" stroke-width="1.51"/><path d="M1297,44L1261,39L1281,61Z" fill="#f4754e" stroke="#f4754e" stroke-width="1.51"/><path d="M1336,60L1297,44L1281,61Z" fill="#f26d4b" stroke="#f26d4b" stroke-width="1.51"/><path d="M748,-5L723,66L767,53Z" fill="#fda670" stroke="#fda670" stroke-width="1.51"/><path d="M708,4L723,66L748,-5Z" fill="#fdb67f" stroke="#fdb67f" stroke-width="1.51"/><path d="M1297,44L1308,15L1261,39Z" fill="#f78157" stroke="#f78157" stroke-width="1.51"/><path d="M1328,-8L1308,15L1361,14Z" fill="#f79366" stroke="#f79366" stroke-width="1.51"/><path d="M751,-27L708,4L748,-5Z" fill="#fdc790" stroke="#fdc790" stroke-width="1.51"/><path d="M723,66L717,129L764,84Z" fill="#ec7c4f" stroke="#ec7c4f" stroke-width="1.51"/><path d="M708,4L706,58L723,66Z" fill="#fda46f" stroke="#fda46f" stroke-width="1.51"/><path d="M588,-58L713,-50L851,-51Z" fill="#ffd7b3" stroke="#ffd7b3" stroke-width="1.51"/><path d="M851,-51L713,-50L815,-45Z" fill="#ffd1aa" stroke="#ffd1aa" stroke-width="1.51"/><path d="M815,-45L713,-50L751,-27Z" fill="#ffd1a7" stroke="#ffd1a7" stroke-width="1.51"/><path d="M751,-27L713,-50L708,4Z" fill="#fecd9c" stroke="#fecd9c" stroke-width="1.51"/><path d="M1308,15L1320,-34L1283,-59Z" fill="#fba47d" stroke="#fba47d" stroke-width="1.51"/><path d="M689,116L717,129L723,66Z" fill="#e5774b" stroke="#e5774b" stroke-width="1.51"/><path d="M1308,15L1328,-8L1320,-34Z" fill="#f99c6f" stroke="#f99c6f" stroke-width="1.51"/><path d="M1336,60L1308,15L1297,44Z" fill="#f57950" stroke="#f57950" stroke-width="1.51"/><path d="M1284,103L1336,60L1281,61Z" fill="#eb5d40" stroke="#eb5d40" stroke-width="1.51"/><path d="M706,58L689,116L723,66Z" fill="#f3885b" stroke="#f3885b" stroke-width="1.51"/><path d="M673,64L689,116L706,58Z" fill="#f2895c" stroke="#f2895c" stroke-width="1.51"/><path d="M672,26L706,58L708,4Z" fill="#fdb17a" stroke="#fdb17a" stroke-width="1.51"/><path d="M1336,60L1349,42L1308,15Z" fill="#f4784f" stroke="#f4784f" stroke-width="1.51"/><path d="M1328,-8L1357,-63L1320,-34Z" fill="#fba582" stroke="#fba582" stroke-width="1.51"/><path d="M1336,60L1352,49L1349,42Z" fill="#f16d49" stroke="#f16d49" stroke-width="1.51"/><path d="M1349,42L1361,14L1308,15Z" fill="#f6865a" stroke="#f6865a" stroke-width="1.51"/><path d="M1369,95L1352,49L1336,60Z" fill="#ec5f42" stroke="#ec5f42" stroke-width="1.51"/><path d="M657,17L672,26L708,4Z" fill="#fdbd86" stroke="#fdbd86" stroke-width="1.51"/><path d="M672,26L673,64L706,58Z" fill="#fba16e" stroke="#fba16e" stroke-width="1.51"/><path d="M713,-50L674,-45L708,4Z" fill="#fed1a3" stroke="#fed1a3" stroke-width="1.51"/><path d="M1284,103L1348,111L1336,60Z" fill="#e24a32" stroke="#e24a32" stroke-width="1.51"/><path d="M1355,142L1348,111L1284,103Z" fill="#ce3b23" stroke="#ce3b23" stroke-width="1.51"/><path d="M1355,142L1268,103L1192,122Z" fill="#cc3f26" stroke="#cc3f26" stroke-width="1.51"/><path d="M1352,49L1361,14L1349,42Z" fill="#f57a50" stroke="#f57a50" stroke-width="1.51"/><path d="M1399,15L1361,14L1403,47Z" fill="#f48155" stroke="#f48155" stroke-width="1.51"/><path d="M1320,-34L1357,-63L1283,-59Z" fill="#fdac8e" stroke="#fdac8e" stroke-width="1.51"/><path d="M1283,-59L1357,-63L1149,-62Z" fill="#ffb297" stroke="#ffb297" stroke-width="1.51"/><path d="M1361,14L1357,-63L1328,-8Z" fill="#f99e74" stroke="#f99e74" stroke-width="1.51"/><path d="M651,7L657,17L708,4Z" fill="#fdc18a" stroke="#fdc18a" stroke-width="1.51"/><path d="M672,26L647,69L673,64Z" fill="#fb9f6d" stroke="#fb9f6d" stroke-width="1.51"/><path d="M673,64L647,69L689,116Z" fill="#f1875a" stroke="#f1875a" stroke-width="1.51"/><path d="M674,-45L651,7L708,4Z" fill="#fdcb94" stroke="#fdcb94" stroke-width="1.51"/><path d="M657,17L647,69L672,26Z" fill="#fdab74" stroke="#fdab74" stroke-width="1.51"/><path d="M1348,111L1369,95L1336,60Z" fill="#e24a32" stroke="#e24a32" stroke-width="1.51"/><path d="M928,142L1355,142L1074,125Z" fill="#c14929" stroke="#c14929" stroke-width="1.51"/><path d="M1355,142L1369,95L1348,111Z" fill="#cf3922" stroke="#cf3922" stroke-width="1.51"/><path d="M1361,14L1417,-38L1357,-63Z" fill="#f9a079" stroke="#f9a079" stroke-width="1.51"/><path d="M623,27L647,69L657,17Z" fill="#feab75" stroke="#feab75" stroke-width="1.51"/><path d="M1421,115L1394,76L1369,95Z" fill="#dc412a" stroke="#dc412a" stroke-width="1.51"/><path d="M1369,95L1394,76L1352,49Z" fill="#e9583c" stroke="#e9583c" stroke-width="1.51"/><path d="M1403,47L1361,14L1352,49Z" fill="#f3774e" stroke="#f3774e" stroke-width="1.51"/><path d="M607,-5L623,27L651,7Z" fill="#fdc38c" stroke="#fdc38c" stroke-width="1.51"/><path d="M651,7L623,27L657,17Z" fill="#fdbd87" stroke="#fdbd87" stroke-width="1.51"/><path d="M1394,76L1403,47L1352,49Z" fill="#ee6544" stroke="#ee6544" stroke-width="1.51"/><path d="M674,-45L619,-26L651,7Z" fill="#fed09e" stroke="#fed09e" stroke-width="1.51"/><path d="M619,-26L607,-5L651,7Z" fill="#fdcc95" stroke="#fdcc95" stroke-width="1.51"/><path d="M606,114L621,137L647,69Z" fill="#e47a4c" stroke="#e47a4c" stroke-width="1.51"/><path d="M647,69L621,137L689,116Z" fill="#e3794b" stroke="#e3794b" stroke-width="1.51"/><path d="M689,116L621,137L717,129Z" fill="#d16f44" stroke="#d16f44" stroke-width="1.51"/><path d="M717,129L621,137L764,140Z" fill="#c86b42" stroke="#c86b42" stroke-width="1.51"/><path d="M602,64L647,69L623,27Z" fill="#fba06f" stroke="#fba06f" stroke-width="1.51"/><path d="M1451,-16L1417,-38L1399,15Z" fill="#f6966a" stroke="#f6966a" stroke-width="1.51"/><path d="M1399,15L1417,-38L1361,14Z" fill="#f69367" stroke="#f69367" stroke-width="1.51"/><path d="M574,54L602,64L623,27Z" fill="#fca572" stroke="#fca572" stroke-width="1.51"/><path d="M602,64L606,114L647,69Z" fill="#f28a5d" stroke="#f28a5d" stroke-width="1.51"/><path d="M1394,76L1441,87L1403,47Z" fill="#e9573c" stroke="#e9573c" stroke-width="1.51"/><path d="M1474,49L1451,-16L1399,15Z" fill="#f28559" stroke="#f28559" stroke-width="1.51"/><path d="M1355,142L1421,115L1369,95Z" fill="#cd361f" stroke="#cd361f" stroke-width="1.51"/><path d="M607,-5L574,54L623,27Z" fill="#fdb881" stroke="#fdb881" stroke-width="1.51"/><path d="M602,64L565,125L606,114Z" fill="#e87f51" stroke="#e87f51" stroke-width="1.51"/><path d="M619,-26L569,-43L607,-5Z" fill="#fed3a3" stroke="#fed3a3" stroke-width="1.51"/><path d="M674,-45L588,-58L619,-26Z" fill="#ffd9b0" stroke="#ffd9b0" stroke-width="1.51"/><path d="M713,-50L588,-58L674,-45Z" fill="#ffd9b4" stroke="#ffd9b4" stroke-width="1.51"/><path d="M1149,-62L588,-58L851,-51Z" fill="#ffceaa" stroke="#ffceaa" stroke-width="1.51"/><path d="M1421,115L1441,87L1394,76Z" fill="#dd402a" stroke="#dd402a" stroke-width="1.51"/><path d="M547,38L574,54L607,-5Z" fill="#feb67f" stroke="#feb67f" stroke-width="1.51"/><path d="M1474,49L1399,15L1403,47Z" fill="#f17349" stroke="#f17349" stroke-width="1.51"/><path d="M1451,-16L1455,-33L1417,-38Z" fill="#f79b74" stroke="#f79b74" stroke-width="1.51"/><path d="M1417,-38L1501,-61L1357,-63Z" fill="#fba488" stroke="#fba488" stroke-width="1.51"/><path d="M1501,-3L1455,-33L1451,-16Z" fill="#f59469" stroke="#f59469" stroke-width="1.51"/><path d="M588,-58L569,-43L619,-26Z" fill="#fedab1" stroke="#fedab1" stroke-width="1.51"/><path d="M541,91L565,125L602,64Z" fill="#ee8457" stroke="#ee8457" stroke-width="1.51"/><path d="M606,114L565,125L621,137Z" fill="#d47347" stroke="#d47347" stroke-width="1.51"/><path d="M541,91L602,64L574,54Z" fill="#f79769" stroke="#f79769" stroke-width="1.51"/><path d="M1513,61L1474,49L1441,87Z" fill="#e8563b" stroke="#e8563b" stroke-width="1.51"/><path d="M1441,87L1474,49L1403,47Z" fill="#ea5e3f" stroke="#ea5e3f" stroke-width="1.51"/><path d="M535,-4L547,38L607,-5Z" fill="#fdc68f" stroke="#fdc68f" stroke-width="1.51"/><path d="M1421,115L1465,135L1441,87Z" fill="#ce321d" stroke="#ce321d" stroke-width="1.51"/><path d="M1355,142L1465,135L1421,115Z" fill="#be2f1c" stroke="#be2f1c" stroke-width="1.51"/><path d="M547,38L541,91L574,54Z" fill="#fa9f70" stroke="#fa9f70" stroke-width="1.51"/><path d="M569,-43L535,-4L607,-5Z" fill="#fed29e" stroke="#fed29e" stroke-width="1.51"/><path d="M547,38L521,39L541,91Z" fill="#fba372" stroke="#fba372" stroke-width="1.51"/><path d="M1355,142L1481,136L1465,135Z" fill="#b52c1b" stroke="#b52c1b" stroke-width="1.51"/><path d="M1465,135L1481,136L1441,87Z" fill="#c82c19" stroke="#c82c19" stroke-width="1.51"/><path d="M1474,49L1501,-3L1451,-16Z" fill="#f2865a" stroke="#f2865a" stroke-width="1.51"/><path d="M1513,46L1501,-3L1474,49Z" fill="#ef7349" stroke="#ef7349" stroke-width="1.51"/><path d="M535,-4L521,39L547,38Z" fill="#febc85" stroke="#febc85" stroke-width="1.51"/><path d="M1501,-3L1501,-61L1455,-33Z" fill="#f69974" stroke="#f69974" stroke-width="1.51"/><path d="M1455,-33L1501,-61L1417,-38Z" fill="#f99f7e" stroke="#f99f7e" stroke-width="1.51"/><path d="M1501,-3L1532,-49L1501,-61Z" fill="#f69976" stroke="#f69976" stroke-width="1.51"/><path d="M1513,61L1513,46L1474,49Z" fill="#ea603d" stroke="#ea603d" stroke-width="1.51"/><path d="M1481,136L1513,61L1441,87Z" fill="#d93925" stroke="#d93925" stroke-width="1.51"/><path d="M535,-4L504,16L521,39Z" fill="#fdc38c" stroke="#fdc38c" stroke-width="1.51"/><path d="M497,85L504,104L541,91Z" fill="#ee8659" stroke="#ee8659" stroke-width="1.51"/><path d="M499,-42L504,16L535,-4Z" fill="#fdd29b" stroke="#fdd29b" stroke-width="1.51"/><path d="M1528,56L1522,14L1513,46Z" fill="#ed6940" stroke="#ed6940" stroke-width="1.51"/><path d="M1513,46L1522,14L1501,-3Z" fill="#f07d51" stroke="#f07d51" stroke-width="1.51"/><path d="M497,85L541,91L521,39Z" fill="#f7986a" stroke="#f7986a" stroke-width="1.51"/><path d="M541,91L504,104L565,125Z" fill="#e57e50" stroke="#e57e50" stroke-width="1.51"/><path d="M1513,61L1528,56L1513,46Z" fill="#e95c3b" stroke="#e95c3b" stroke-width="1.51"/><path d="M1529,74L1528,56L1513,61Z" fill="#e65338" stroke="#e65338" stroke-width="1.51"/><path d="M488,72L497,85L521,39Z" fill="#f99d70" stroke="#f99d70" stroke-width="1.51"/><path d="M569,-43L499,-42L535,-4Z" fill="#fed8aa" stroke="#fed8aa" stroke-width="1.51"/><path d="M588,-58L499,-42L569,-43Z" fill="#ffddb6" stroke="#ffddb6" stroke-width="1.51"/><path d="M1481,136L1529,74L1513,61Z" fill="#db3925" stroke="#db3925" stroke-width="1.51"/><path d="M489,26L521,39L504,16Z" fill="#febb85" stroke="#febb85" stroke-width="1.51"/><path d="M456,-13L489,26L504,16Z" fill="#fdca93" stroke="#fdca93" stroke-width="1.51"/><path d="M1560,21L1522,14L1528,56Z" fill="#ee7046" stroke="#ee7046" stroke-width="1.51"/><path d="M1570,-10L1532,-49L1522,14Z" fill="#f18e62" stroke="#f18e62" stroke-width="1.51"/><path d="M1522,14L1532,-49L1501,-3Z" fill="#f28f62" stroke="#f28f62" stroke-width="1.51"/><path d="M489,26L488,72L521,39Z" fill="#fdab77" stroke="#fdab77" stroke-width="1.51"/><path d="M497,85L484,141L504,104Z" fill="#e37f50" stroke="#e37f50" stroke-width="1.51"/><path d="M440,75L497,85L488,72Z" fill="#f59568" stroke="#f59568" stroke-width="1.51"/><path d="M440,75L484,141L497,85Z" fill="#ea8557" stroke="#ea8557" stroke-width="1.51"/><path d="M504,104L484,141L565,125Z" fill="#d7774b" stroke="#d7774b" stroke-width="1.51"/><path d="M565,125L484,141L621,137Z" fill="#ca7248" stroke="#ca7248" stroke-width="1.51"/><path d="M621,137L484,141L764,140Z" fill="#c46d45" stroke="#c46d45" stroke-width="1.51"/><path d="M764,140L484,141L928,142Z" fill="#c26840" stroke="#c26840" stroke-width="1.51"/><path d="M1481,136L1542,140L1529,74Z" fill="#c82615" stroke="#c82615" stroke-width="1.51"/><path d="M1559,95L1560,21L1528,56Z" fill="#e75638" stroke="#e75638" stroke-width="1.51"/><path d="M1355,142L1542,140L1481,136Z" fill="#b32919" stroke="#b32919" stroke-width="1.51"/><path d="M1559,95L1528,56L1529,74Z" fill="#e1472f" stroke="#e1472f" stroke-width="1.51"/><path d="M1542,140L1559,95L1529,74Z" fill="#d02c1b" stroke="#d02c1b" stroke-width="1.51"/><path d="M499,-42L456,-13L504,16Z" fill="#fdd49f" stroke="#fdd49f" stroke-width="1.51"/><path d="M489,26L440,75L488,72Z" fill="#fba474" stroke="#fba474" stroke-width="1.51"/><path d="M588,-58L464,-42L499,-42Z" fill="#ffdfb8" stroke="#ffdfb8" stroke-width="1.51"/><path d="M464,-42L456,-13L499,-42Z" fill="#fedcaf" stroke="#fedcaf" stroke-width="1.51"/><path d="M1616,0L1570,-10L1560,21Z" fill="#ee8255" stroke="#ee8255" stroke-width="1.51"/><path d="M1560,21L1570,-10L1522,14Z" fill="#ef8155" stroke="#ef8155" stroke-width="1.51"/><path d="M1542,140L1571,108L1559,95Z" fill="#c72313" stroke="#c72313" stroke-width="1.51"/><path d="M1619,36L1616,0L1560,21Z" fill="#ec774b" stroke="#ec774b" stroke-width="1.51"/><path d="M412,51L440,75L489,26Z" fill="#fdab79" stroke="#fdab79" stroke-width="1.51"/><path d="M1532,-49L1586,-54L1501,-61Z" fill="#f79b7f" stroke="#f79b7f" stroke-width="1.51"/><path d="M1570,-10L1586,-54L1532,-49Z" fill="#f49572" stroke="#f49572" stroke-width="1.51"/><path d="M1616,0L1586,-54L1570,-10Z" fill="#f08d64" stroke="#f08d64" stroke-width="1.51"/><path d="M456,-13L418,9L489,26Z" fill="#fdcc96" stroke="#fdcc96" stroke-width="1.51"/><path d="M464,-42L435,-28L456,-13Z" fill="#fedbad" stroke="#fedbad" stroke-width="1.51"/><path d="M435,-28L418,9L456,-13Z" fill="#fdd4a0" stroke="#fdd4a0" stroke-width="1.51"/><path d="M440,75L416,134L484,141Z" fill="#df7d4f" stroke="#df7d4f" stroke-width="1.51"/><path d="M418,9L412,51L489,26Z" fill="#febc87" stroke="#febc87" stroke-width="1.51"/><path d="M1619,36L1560,21L1559,95Z" fill="#e85a38" stroke="#e85a38" stroke-width="1.51"/><path d="M418,9L407,55L412,51Z" fill="#ffb581" stroke="#ffb581" stroke-width="1.51"/><path d="M435,-28L408,-7L418,9Z" fill="#fdd5a0" stroke="#fdd5a0" stroke-width="1.51"/><path d="M412,51L407,55L440,75Z" fill="#fba577" stroke="#fba577" stroke-width="1.51"/><path d="M408,-7L407,55L418,9Z" fill="#fec691" stroke="#fec691" stroke-width="1.51"/><path d="M389,74L416,134L440,75Z" fill="#ef8a5e" stroke="#ef8a5e" stroke-width="1.51"/><path d="M1636,80L1619,36L1559,95Z" fill="#df462e" stroke="#df462e" stroke-width="1.51"/><path d="M1571,108L1636,80L1559,95Z" fill="#d42e1d" stroke="#d42e1d" stroke-width="1.51"/><path d="M1542,140L1615,115L1571,108Z" fill="#c01d10" stroke="#c01d10" stroke-width="1.51"/><path d="M1640,-5L1622,-56L1616,0Z" fill="#ee8b61" stroke="#ee8b61" stroke-width="1.51"/><path d="M1616,0L1622,-56L1586,-54Z" fill="#f2926e" stroke="#f2926e" stroke-width="1.51"/><path d="M1586,-54L1622,-56L1501,-61Z" fill="#f79a7e" stroke="#f79a7e" stroke-width="1.51"/><path d="M407,55L389,74L440,75Z" fill="#f99f74" stroke="#f99f74" stroke-width="1.51"/><path d="M346,62L389,74L407,55Z" fill="#fba379" stroke="#fba379" stroke-width="1.51"/><path d="M1619,36L1640,-5L1616,0Z" fill="#eb7c4f" stroke="#eb7c4f" stroke-width="1.51"/><path d="M1615,115L1636,80L1571,108Z" fill="#ce2718" stroke="#ce2718" stroke-width="1.51"/><path d="M1655,28L1640,-5L1619,36Z" fill="#e97448" stroke="#e97448" stroke-width="1.51"/><path d="M1636,80L1655,28L1619,36Z" fill="#e45936" stroke="#e45936" stroke-width="1.51"/><path d="M1615,115L1638,99L1636,80Z" fill="#ce2818" stroke="#ce2818" stroke-width="1.51"/><path d="M331,35L346,62L407,55Z" fill="#feae7f" stroke="#feae7f" stroke-width="1.51"/><path d="M435,-28L383,-39L408,-7Z" fill="#fedbad" stroke="#fedbad" stroke-width="1.51"/><path d="M464,-42L383,-39L435,-28Z" fill="#fedfb6" stroke="#fedfb6" stroke-width="1.51"/><path d="M366,-50L383,-39L464,-42Z" fill="#fee2bd" stroke="#fee2bd" stroke-width="1.51"/><path d="M1692,92L1655,28L1636,80Z" fill="#dd472e" stroke="#dd472e" stroke-width="1.51"/><path d="M1640,-5L1666,-29L1622,-56Z" fill="#ee8e67" stroke="#ee8e67" stroke-width="1.51"/><path d="M389,74L377,128L416,134Z" fill="#e38256" stroke="#e38256" stroke-width="1.51"/><path d="M346,62L377,128L389,74Z" fill="#f29066" stroke="#f29066" stroke-width="1.51"/><path d="M1615,115L1647,134L1638,99Z" fill="#c21a0d" stroke="#c21a0d" stroke-width="1.51"/><path d="M1638,99L1692,92L1636,80Z" fill="#d22c1c" stroke="#d22c1c" stroke-width="1.51"/><path d="M1542,140L1647,134L1615,115Z" fill="#b61a0e" stroke="#b61a0e" stroke-width="1.51"/><path d="M331,35L407,55L408,-7Z" fill="#ffbf8c" stroke="#ffbf8c" stroke-width="1.51"/><path d="M588,-58L366,-50L464,-42Z" fill="#ffe2bc" stroke="#ffe2bc" stroke-width="1.51"/><path d="M1703,27L1666,-29L1655,28Z" fill="#e87b4d" stroke="#e87b4d" stroke-width="1.51"/><path d="M1655,28L1666,-29L1640,-5Z" fill="#ea8154" stroke="#ea8154" stroke-width="1.51"/><path d="M331,35L408,-7L332,-18Z" fill="#fed19f" stroke="#fed19f" stroke-width="1.51"/><path d="M346,62L335,132L377,128Z" fill="#e7855b" stroke="#e7855b" stroke-width="1.51"/><path d="M332,-18L408,-7L383,-39Z" fill="#fedbae" stroke="#fedbae" stroke-width="1.51"/><path d="M366,-50L332,-18L383,-39Z" fill="#fee1ba" stroke="#fee1ba" stroke-width="1.51"/><path d="M1647,134L1692,92L1638,99Z" fill="#c51e10" stroke="#c51e10" stroke-width="1.51"/><path d="M311,113L335,132L346,62Z" fill="#ea8960" stroke="#ea8960" stroke-width="1.51"/><path d="M377,128L335,132L416,134Z" fill="#d07a53" stroke="#d07a53" stroke-width="1.51"/><path d="M416,134L258,140L484,141Z" fill="#c87752" stroke="#c87752" stroke-width="1.51"/><path d="M1692,92L1703,27L1655,28Z" fill="#e15633" stroke="#e15633" stroke-width="1.51"/><path d="M366,-50L324,-41L332,-18Z" fill="#fee2bc" stroke="#fee2bc" stroke-width="1.51"/><path d="M332,-18L306,14L331,35Z" fill="#fecf9e" stroke="#fecf9e" stroke-width="1.51"/><path d="M303,72L311,113L346,62Z" fill="#f5976e" stroke="#f5976e" stroke-width="1.51"/><path d="M1715,-10L1711,-43L1666,-29Z" fill="#eb8a62" stroke="#eb8a62" stroke-width="1.51"/><path d="M1666,-29L1711,-43L1622,-56Z" fill="#ee906f" stroke="#ee906f" stroke-width="1.51"/><path d="M1703,27L1715,-10L1666,-29Z" fill="#e88052" stroke="#e88052" stroke-width="1.51"/><path d="M1733,4L1715,-10L1703,27Z" fill="#e6794c" stroke="#e6794c" stroke-width="1.51"/><path d="M277,-21L306,14L332,-18Z" fill="#fed8a9" stroke="#fed8a9" stroke-width="1.51"/><path d="M303,72L346,62L331,35Z" fill="#fdaa80" stroke="#fdaa80" stroke-width="1.51"/><path d="M306,14L303,40L331,35Z" fill="#ffc090" stroke="#ffc090" stroke-width="1.51"/><path d="M303,40L303,72L331,35Z" fill="#ffb083" stroke="#ffb083" stroke-width="1.51"/><path d="M1647,134L1719,139L1692,92Z" fill="#b91409" stroke="#b91409" stroke-width="1.51"/><path d="M1692,92L1728,45L1703,27Z" fill="#de5030" stroke="#de5030" stroke-width="1.51"/><path d="M1542,140L1719,139L1647,134Z" fill="#ab160d" stroke="#ab160d" stroke-width="1.51"/><path d="M1778,140L1719,139L1542,140Z" fill="#a6120a" stroke="#a6120a" stroke-width="1.51"/><path d="M1745,63L1728,45L1692,92Z" fill="#d9442b" stroke="#d9442b" stroke-width="1.51"/><path d="M1715,-10L1730,-39L1711,-43Z" fill="#ea8a63" stroke="#ea8a63" stroke-width="1.51"/><path d="M1733,4L1730,-39L1715,-10Z" fill="#e78457" stroke="#e78457" stroke-width="1.51"/><path d="M1728,45L1733,4L1703,27Z" fill="#e36b3f" stroke="#e36b3f" stroke-width="1.51"/><path d="M1787,-2L1733,4L1792,21Z" fill="#e27749" stroke="#e27749" stroke-width="1.51"/><path d="M269,33L283,88L303,72Z" fill="#fca680" stroke="#fca680" stroke-width="1.51"/><path d="M303,72L283,88L311,113Z" fill="#f29069" stroke="#f29069" stroke-width="1.51"/><path d="M269,33L303,72L303,40Z" fill="#ffb185" stroke="#ffb185" stroke-width="1.51"/><path d="M1733,4L1787,-2L1730,-39Z" fill="#e58254" stroke="#e58254" stroke-width="1.51"/><path d="M1746,122L1745,63L1692,92Z" fill="#cc2516" stroke="#cc2516" stroke-width="1.51"/><path d="M306,14L269,33L303,40Z" fill="#ffc191" stroke="#ffc191" stroke-width="1.51"/><path d="M324,-41L277,-21L332,-18Z" fill="#fee0b7" stroke="#fee0b7" stroke-width="1.51"/><path d="M1719,139L1746,122L1692,92Z" fill="#ba1107" stroke="#ba1107" stroke-width="1.51"/><path d="M277,-21L269,33L306,14Z" fill="#fed1a2" stroke="#fed1a2" stroke-width="1.51"/><path d="M277,-21L228,18L269,33Z" fill="#fed1a3" stroke="#fed1a3" stroke-width="1.51"/><path d="M324,-41L261,-29L277,-21Z" fill="#fee2bb" stroke="#fee2bb" stroke-width="1.51"/><path d="M243,-33L261,-29L324,-41Z" fill="#fee4c0" stroke="#fee4c0" stroke-width="1.51"/><path d="M237,133L258,140L283,88Z" fill="#de825c" stroke="#de825c" stroke-width="1.51"/><path d="M283,88L258,140L311,113Z" fill="#e3845c" stroke="#e3845c" stroke-width="1.51"/><path d="M311,113L258,140L335,132Z" fill="#d47e59" stroke="#d47e59" stroke-width="1.51"/><path d="M335,132L258,140L416,134Z" fill="#cc7a55" stroke="#cc7a55" stroke-width="1.51"/><path d="M231,43L283,88L269,33Z" fill="#feae85" stroke="#feae85" stroke-width="1.51"/><path d="M1746,122L1781,81L1745,63Z" fill="#cc2818" stroke="#cc2818" stroke-width="1.51"/><path d="M1792,21L1733,4L1728,45Z" fill="#e16b3f" stroke="#e16b3f" stroke-width="1.51"/><path d="M261,-29L228,18L277,-21Z" fill="#fedbae" stroke="#fedbae" stroke-width="1.51"/><path d="M177,-50L243,-33L324,-41Z" fill="#fee7c7" stroke="#fee7c7" stroke-width="1.51"/><path d="M1719,139L1778,140L1746,122Z" fill="#a80c07" stroke="#a80c07" stroke-width="1.51"/><path d="M1746,122L1778,140L1781,81Z" fill="#ba0e06" stroke="#ba0e06" stroke-width="1.51"/><path d="M1355,142L1778,140L1542,140Z" fill="#ad1c12" stroke="#ad1c12" stroke-width="1.51"/><path d="M1792,21L1745,63L1781,81Z" fill="#da4c2d" stroke="#da4c2d" stroke-width="1.51"/><path d="M1792,21L1728,45L1745,63Z" fill="#df5731" stroke="#df5731" stroke-width="1.51"/><path d="M1808,0L1792,21L1820,32Z" fill="#df6e41" stroke="#df6e41" stroke-width="1.51"/><path d="M228,18L231,43L269,33Z" fill="#ffc193" stroke="#ffc193" stroke-width="1.51"/><path d="M1808,0L1793,-26L1787,-2Z" fill="#e27e4f" stroke="#e27e4f" stroke-width="1.51"/><path d="M1787,-2L1793,-26L1730,-39Z" fill="#e6855a" stroke="#e6855a" stroke-width="1.51"/><path d="M1730,-39L1846,-62L1711,-43Z" fill="#ea8e6d" stroke="#ea8e6d" stroke-width="1.51"/><path d="M211,79L237,133L283,88Z" fill="#ed8d67" stroke="#ed8d67" stroke-width="1.51"/><path d="M243,-33L228,18L261,-29Z" fill="#feddb2" stroke="#feddb2" stroke-width="1.51"/><path d="M231,43L211,79L283,88Z" fill="#faa47f" stroke="#faa47f" stroke-width="1.51"/><path d="M1792,21L1808,0L1787,-2Z" fill="#e07648" stroke="#e07648" stroke-width="1.51"/><path d="M1820,32L1792,21L1781,81Z" fill="#db542f" stroke="#db542f" stroke-width="1.51"/><path d="M185,26L211,79L231,43Z" fill="#ffb48b" stroke="#ffb48b" stroke-width="1.51"/><path d="M1823,86L1820,32L1781,81Z" fill="#d44027" stroke="#d44027" stroke-width="1.51"/><path d="M1831,117L1823,86L1781,81Z" fill="#c51d10" stroke="#c51d10" stroke-width="1.51"/><path d="M1845,-6L1808,0L1820,32Z" fill="#df7346" stroke="#df7346" stroke-width="1.51"/><path d="M1845,-6L1829,-32L1808,0Z" fill="#e07e4f" stroke="#e07e4f" stroke-width="1.51"/><path d="M1808,0L1829,-32L1793,-26Z" fill="#e38156" stroke="#e38156" stroke-width="1.51"/><path d="M1793,-26L1846,-62L1730,-39Z" fill="#e78a68" stroke="#e78a68" stroke-width="1.51"/><path d="M1711,-43L1846,-62L1622,-56Z" fill="#ec9173" stroke="#ec9173" stroke-width="1.51"/><path d="M228,18L192,18L231,43Z" fill="#ffc69a" stroke="#ffc69a" stroke-width="1.51"/><path d="M243,-33L192,18L228,18Z" fill="#fed7ab" stroke="#fed7ab" stroke-width="1.51"/><path d="M1866,59L1845,-6L1820,32Z" fill="#db6236" stroke="#db6236" stroke-width="1.51"/><path d="M1778,140L1831,117L1781,81Z" fill="#ba0e05" stroke="#ba0e05" stroke-width="1.51"/><path d="M211,79L168,130L237,133Z" fill="#e48762" stroke="#e48762" stroke-width="1.51"/><path d="M192,18L185,26L231,43Z" fill="#ffc498" stroke="#ffc498" stroke-width="1.51"/><path d="M1866,59L1820,32L1823,86Z" fill="#d54628" stroke="#d54628" stroke-width="1.51"/><path d="M1886,-40L1846,-62L1829,-32Z" fill="#e48866" stroke="#e48866" stroke-width="1.51"/><path d="M1829,-32L1846,-62L1793,-26Z" fill="#e58865" stroke="#e58865" stroke-width="1.51"/><path d="M1622,-56L1846,-62L1501,-61Z" fill="#f2967a" stroke="#f2967a" stroke-width="1.51"/><path d="M1501,-61L1846,-62L1357,-63Z" fill="#f79b81" stroke="#f79b81" stroke-width="1.51"/><path d="M192,18L151,2L185,26Z" fill="#ffd1a6" stroke="#ffd1a6" stroke-width="1.51"/><path d="M243,-33L177,-50L192,18Z" fill="#fee1bb" stroke="#fee1bb" stroke-width="1.51"/><path d="M366,-50L177,-50L324,-41Z" fill="#ffe7c8" stroke="#ffe7c8" stroke-width="1.51"/><path d="M127,-62L177,-50L366,-50Z" fill="#ffecd2" stroke="#ffecd2" stroke-width="1.51"/><path d="M1845,-6L1886,-40L1829,-32Z" fill="#e18259" stroke="#e18259" stroke-width="1.51"/><path d="M1831,117L1849,90L1823,86Z" fill="#c1190d" stroke="#c1190d" stroke-width="1.51"/><path d="M185,26L171,85L211,79Z" fill="#fdaa87" stroke="#fdaa87" stroke-width="1.51"/><path d="M153,57L171,85L185,26Z" fill="#feb08b" stroke="#feb08b" stroke-width="1.51"/><path d="M1831,117L1851,121L1849,90Z" fill="#b80c05" stroke="#b80c05" stroke-width="1.51"/><path d="M1849,90L1866,59L1823,86Z" fill="#cc301c" stroke="#cc301c" stroke-width="1.51"/><path d="M1778,140L1851,121L1831,117Z" fill="#ab0402" stroke="#ab0402" stroke-width="1.51"/><path d="M171,85L168,130L211,79Z" fill="#ef906c" stroke="#ef906c" stroke-width="1.51"/><path d="M237,133L168,130L258,140Z" fill="#ce7e5e" stroke="#ce7e5e" stroke-width="1.51"/><path d="M147,124L168,130L171,85Z" fill="#e58965" stroke="#e58965" stroke-width="1.51"/><path d="M1889,112L1866,59L1849,90Z" fill="#c52414" stroke="#c52414" stroke-width="1.51"/><path d="M151,2L153,57L185,26Z" fill="#ffc69b" stroke="#ffc69b" stroke-width="1.51"/><path d="M177,-50L151,2L192,18Z" fill="#fedeb4" stroke="#fedeb4" stroke-width="1.51"/><path d="M114,93L147,124L171,85Z" fill="#ee906e" stroke="#ee906e" stroke-width="1.51"/><path d="M126,64L171,85L153,57Z" fill="#fca786" stroke="#fca786" stroke-width="1.51"/><path d="M1893,-13L1886,-40L1845,-6Z" fill="#de7f54" stroke="#de7f54" stroke-width="1.51"/><path d="M1866,59L1893,-13L1845,-6Z" fill="#db6f42" stroke="#db6f42" stroke-width="1.51"/><path d="M1851,121L1889,112L1849,90Z" fill="#b80d05" stroke="#b80d05" stroke-width="1.51"/><path d="M1929,120L1889,112L1851,121Z" fill="#ae0000" stroke="#ae0000" stroke-width="1.51"/><path d="M1916,27L1893,-13L1866,59Z" fill="#d76439" stroke="#d76439" stroke-width="1.51"/><path d="M151,2L126,64L153,57Z" fill="#ffbc92" stroke="#ffbc92" stroke-width="1.51"/><path d="M151,2L103,-8L126,64Z" fill="#ffcfa6" stroke="#ffcfa6" stroke-width="1.51"/><path d="M177,-50L127,-62L151,2Z" fill="#fee9cb" stroke="#fee9cb" stroke-width="1.51"/><path d="M588,-58L127,-62L366,-50Z" fill="#ffe8c9" stroke="#ffe8c9" stroke-width="1.51"/><path d="M1149,-62L127,-62L588,-58Z" fill="#ffdebd" stroke="#ffdebd" stroke-width="1.51"/><path d="M1357,-63L127,-62L1149,-62Z" fill="#ffcead" stroke="#ffcead" stroke-width="1.51"/><path d="M1889,112L1903,65L1866,59Z" fill="#c82f1a" stroke="#c82f1a" stroke-width="1.51"/><path d="M126,64L114,93L171,85Z" fill="#f89e7c" stroke="#f89e7c" stroke-width="1.51"/><path d="M83,45L114,93L126,64Z" fill="#fdaa8a" stroke="#fdaa8a" stroke-width="1.51"/><path d="M1948,67L1916,27L1903,65Z" fill="#ce4829" stroke="#ce4829" stroke-width="1.51"/><path d="M1903,65L1916,27L1866,59Z" fill="#d24b2a" stroke="#d24b2a" stroke-width="1.51"/><path d="M1893,-13L1949,-31L1886,-40Z" fill="#db805a" stroke="#db805a" stroke-width="1.51"/><path d="M127,-62L103,-8L151,2Z" fill="#fee4c1" stroke="#fee4c1" stroke-width="1.51"/><path d="M1889,112L1929,120L1903,65Z" fill="#ba160b" stroke="#ba160b" stroke-width="1.51"/><path d="M1778,140L1929,120L1851,121Z" fill="#a80001" stroke="#a80001" stroke-width="1.51"/><path d="M103,-8L83,45L126,64Z" fill="#ffc39b" stroke="#ffc39b" stroke-width="1.51"/><path d="M69,97L86,110L114,93Z" fill="#ef9272" stroke="#ef9272" stroke-width="1.51"/><path d="M114,93L86,110L147,124Z" fill="#e98c6a" stroke="#e98c6a" stroke-width="1.51"/><path d="M147,124L28,117L168,130Z" fill="#dc8565" stroke="#dc8565" stroke-width="1.51"/><path d="M103,-8L78,35L83,45Z" fill="#ffcca4" stroke="#ffcca4" stroke-width="1.51"/><path d="M127,-62L82,-39L103,-8Z" fill="#ffeacd" stroke="#ffeacd" stroke-width="1.51"/><path d="M83,45L69,97L114,93Z" fill="#f9a182" stroke="#f9a182" stroke-width="1.51"/><path d="M46,15L78,35L103,-8Z" fill="#ffd4ad" stroke="#ffd4ad" stroke-width="1.51"/><path d="M1929,120L1948,67L1903,65Z" fill="#c12717" stroke="#c12717" stroke-width="1.51"/><path d="M1916,27L1949,-31L1893,-13Z" fill="#d7774a" stroke="#d7774a" stroke-width="1.51"/><path d="M1965,-20L1949,-31L1916,27Z" fill="#d5774b" stroke="#d5774b" stroke-width="1.51"/><path d="M1886,-40L2004,-52L1846,-62Z" fill="#de886a" stroke="#de886a" stroke-width="1.51"/><path d="M82,-39L76,-34L103,-8Z" fill="#ffe7c7" stroke="#ffe7c7" stroke-width="1.51"/><path d="M48,103L69,97L24,65Z" fill="#f79a7c" stroke="#f79a7c" stroke-width="1.51"/><path d="M69,97L83,45L24,65Z" fill="#fda98c" stroke="#fda98c" stroke-width="1.51"/><path d="M1948,67L1961,42L1916,27Z" fill="#ce4f2b" stroke="#ce4f2b" stroke-width="1.51"/><path d="M1968,65L1961,42L1948,67Z" fill="#c94327" stroke="#c94327" stroke-width="1.51"/><path d="M1961,42L1965,-20L1916,27Z" fill="#d26a3f" stroke="#d26a3f" stroke-width="1.51"/><path d="M1961,42L1989,-11L1965,-20Z" fill="#d17146" stroke="#d17146" stroke-width="1.51"/><path d="M1929,120L1968,65L1948,67Z" fill="#bf2716" stroke="#bf2716" stroke-width="1.51"/><path d="M76,-34L46,15L103,-8Z" fill="#ffe0ba" stroke="#ffe0ba" stroke-width="1.51"/><path d="M69,97L48,103L86,110Z" fill="#ed9070" stroke="#ed9070" stroke-width="1.51"/><path d="M86,110L28,117L147,124Z" fill="#e48968" stroke="#e48968" stroke-width="1.51"/><path d="M24,65L83,45L78,35Z" fill="#ffb894" stroke="#ffb894" stroke-width="1.51"/><path d="M2023,60L1980,52L1968,65Z" fill="#c64227" stroke="#c64227" stroke-width="1.51"/><path d="M1968,65L1980,52L1961,42Z" fill="#ca4728" stroke="#ca4728" stroke-width="1.51"/><path d="M1980,52L1989,-11L1961,42Z" fill="#ce5f36" stroke="#ce5f36" stroke-width="1.51"/><path d="M1965,-20L2004,-52L1949,-31Z" fill="#d5815e" stroke="#d5815e" stroke-width="1.51"/><path d="M24,65L28,117L48,103Z" fill="#f39678" stroke="#f39678" stroke-width="1.51"/><path d="M76,-34L25,-15L46,15Z" fill="#ffe2bc" stroke="#ffe2bc" stroke-width="1.51"/><path d="M82,-39L36,-54L76,-34Z" fill="#ffedd4" stroke="#ffedd4" stroke-width="1.51"/><path d="M127,-62L36,-54L82,-39Z" fill="#ffefda" stroke="#ffefda" stroke-width="1.51"/><path d="M36,-54L25,-15L76,-34Z" fill="#ffebcf" stroke="#ffebcf" stroke-width="1.51"/><path d="M48,103L28,117L86,110Z" fill="#e98d6d" stroke="#e98d6d" stroke-width="1.51"/><path d="M168,130L-74,113L258,140Z" fill="#d78465" stroke="#d78465" stroke-width="1.51"/><path d="M24,65L78,35L46,15Z" fill="#ffc09a" stroke="#ffc09a" stroke-width="1.51"/><path d="M4,55L24,65L46,15Z" fill="#ffbc98" stroke="#ffbc98" stroke-width="1.51"/><path d="M2041,-23L2004,-52L1989,-11Z" fill="#d17e5a" stroke="#d17e5a" stroke-width="1.51"/><path d="M1989,-11L2004,-52L1965,-20Z" fill="#d37e59" stroke="#d37e59" stroke-width="1.51"/><path d="M1949,-31L2004,-52L1886,-40Z" fill="#d98463" stroke="#d98463" stroke-width="1.51"/><path d="M1980,52L2024,27L1989,-11Z" fill="#cc623a" stroke="#cc623a" stroke-width="1.51"/><path d="M1929,120L2002,134L1968,65Z" fill="#af0d07" stroke="#af0d07" stroke-width="1.51"/><path d="M1778,140L2002,134L1929,120Z" fill="#9f0001" stroke="#9f0001" stroke-width="1.51"/><path d="M2002,134L2014,114L1968,65Z" fill="#ae1008" stroke="#ae1008" stroke-width="1.51"/><path d="M24,65L-2,89L28,117Z" fill="#f6997b" stroke="#f6997b" stroke-width="1.51"/><path d="M25,-15L4,55L46,15Z" fill="#ffd2ad" stroke="#ffd2ad" stroke-width="1.51"/><path d="M-2,89L4,55L-48,72Z" fill="#fca98d" stroke="#fca98d" stroke-width="1.51"/><path d="M2014,114L2023,60L1968,65Z" fill="#bc2b19" stroke="#bc2b19" stroke-width="1.51"/><path d="M2023,60L2024,27L1980,52Z" fill="#c74c2a" stroke="#c74c2a" stroke-width="1.51"/><path d="M4,55L-2,89L24,65Z" fill="#fdaa8e" stroke="#fdaa8e" stroke-width="1.51"/><path d="M2058,53L2036,12L2024,27Z" fill="#c75a33" stroke="#c75a33" stroke-width="1.51"/><path d="M2024,27L2036,12L1989,-11Z" fill="#cc6c43" stroke="#cc6c43" stroke-width="1.51"/><path d="M2058,53L2024,27L2023,60Z" fill="#c44b2a" stroke="#c44b2a" stroke-width="1.51"/><path d="M2036,12L2041,-23L1989,-11Z" fill="#cd744a" stroke="#cd744a" stroke-width="1.51"/><path d="M-48,72L-18,110L-2,89Z" fill="#f79a7e" stroke="#f79a7e" stroke-width="1.51"/><path d="M-2,89L-18,110L28,117Z" fill="#ed9173" stroke="#ed9173" stroke-width="1.51"/><path d="M-31,19L4,55L25,-15Z" fill="#ffd2ad" stroke="#ffd2ad" stroke-width="1.51"/><path d="M2036,12L2060,2L2041,-23Z" fill="#ca7148" stroke="#ca7148" stroke-width="1.51"/><path d="M2014,114L2049,90L2023,60Z" fill="#b52013" stroke="#b52013" stroke-width="1.51"/><path d="M2074,142L2049,90L2014,114Z" fill="#a10202" stroke="#a10202" stroke-width="1.51"/><path d="M-32,-25L-31,19L25,-15Z" fill="#ffe1be" stroke="#ffe1be" stroke-width="1.51"/><path d="M36,-54L-32,-25L25,-15Z" fill="#ffebcf" stroke="#ffebcf" stroke-width="1.51"/><path d="M2049,90L2058,53L2023,60Z" fill="#be3823" stroke="#be3823" stroke-width="1.51"/><path d="M2058,53L2060,2L2036,12Z" fill="#c7613a" stroke="#c7613a" stroke-width="1.51"/><path d="M-32,-25L-40,5L-31,19Z" fill="#ffdebc" stroke="#ffdebc" stroke-width="1.51"/><path d="M-31,19L-48,72L4,55Z" fill="#ffbb9a" stroke="#ffbb9a" stroke-width="1.51"/><path d="M-59,46L-48,72L-31,19Z" fill="#ffbd9c" stroke="#ffbd9c" stroke-width="1.51"/><path d="M-40,5L-59,46L-31,19Z" fill="#ffd0ad" stroke="#ffd0ad" stroke-width="1.51"/><path d="M-32,-25L-52,-1L-40,5Z" fill="#ffe2c0" stroke="#ffe2c0" stroke-width="1.51"/><path d="M2124,-26L2086,-49L2060,2Z" fill="#c87955" stroke="#c87955" stroke-width="1.51"/><path d="M2108,90L2099,52L2058,53Z" fill="#ba3a24" stroke="#ba3a24" stroke-width="1.51"/><path d="M2002,134L2074,142L2014,114Z" fill="#940001" stroke="#940001" stroke-width="1.51"/><path d="M1778,140L2074,142L2002,134Z" fill="#930001" stroke="#930001" stroke-width="1.51"/><path d="M1355,142L2074,142L1778,140Z" fill="#a10d07" stroke="#a10d07" stroke-width="1.51"/><path d="M-52,-1L-59,46L-40,5Z" fill="#ffd6b3" stroke="#ffd6b3" stroke-width="1.51"/><path d="M2099,52L2060,2L2058,53Z" fill="#c4542f" stroke="#c4542f" stroke-width="1.51"/><path d="M2060,2L2086,-49L2041,-23Z" fill="#ca7955" stroke="#ca7955" stroke-width="1.51"/><path d="M2041,-23L2086,-49L2004,-52Z" fill="#cf8162" stroke="#cf8162" stroke-width="1.51"/><path d="M2004,-52L2086,-49L1846,-62Z" fill="#d8866b" stroke="#d8866b" stroke-width="1.51"/><path d="M2108,90L2058,53L2049,90Z" fill="#b62d1b" stroke="#b62d1b" stroke-width="1.51"/><path d="M-59,46L-74,113L-48,72Z" fill="#fca68c" stroke="#fca68c" stroke-width="1.51"/><path d="M-48,72L-74,113L-18,110Z" fill="#f2967a" stroke="#f2967a" stroke-width="1.51"/><path d="M-18,110L-74,113L28,117Z" fill="#e88d70" stroke="#e88d70" stroke-width="1.51"/><path d="M28,117L-74,113L168,130Z" fill="#e1886a" stroke="#e1886a" stroke-width="1.51"/><path d="M-79,-61L-74,113L-59,46Z" fill="#ffc8a7" stroke="#ffc8a7" stroke-width="1.51"/><path d="M-52,-1L-79,-61L-59,46Z" fill="#ffe2c1" stroke="#ffe2c1" stroke-width="1.51"/><path d="M-32,-25L-79,-61L-52,-1Z" fill="#ffebd1" stroke="#ffebd1" stroke-width="1.51"/><path d="M36,-54L-79,-61L-32,-25Z" fill="#fff1dd" stroke="#fff1dd" stroke-width="1.51"/><path d="M127,-62L-79,-61L36,-54Z" fill="#fff3e2" stroke="#fff3e2" stroke-width="1.51"/><path d="M2112,115L2108,90L2049,90Z" fill="#a9140c" stroke="#a9140c" stroke-width="1.51"/><path d="M2099,52L2120,12L2060,2Z" fill="#c3613a" stroke="#c3613a" stroke-width="1.51"/><path d="M2074,142L2112,115L2049,90Z" fill="#9e0102" stroke="#9e0102" stroke-width="1.51"/><path d="M2108,90L2120,12L2099,52Z" fill="#bc4528" stroke="#bc4528" stroke-width="1.51"/><path d="M2112,115L2120,12L2108,90Z" fill="#b5321f" stroke="#b5321f" stroke-width="1.51"/><path d="M2112,115L2124,-26L2120,12Z" fill="#bf5530" stroke="#bf5530" stroke-width="1.51"/><path d="M2120,12L2124,-26L2060,2Z" fill="#c47048" stroke="#c47048" stroke-width="1.51"/></svg>